OpenSim_Sub04_CSBaseline_LCS.mot
version=1
nRows=70
nColumns=11
inDegrees=no
endheader
time	Bot_Shank	2nd_Bot_Shank	2nd_Top_Shank	Top_Shank	Bot_Thigh	Med_Thigh	Top_Thigh	BNOx	BNOy	BNOZ
60.62000000	10219.56308557	10590.80919668	11081.78781640	11222.78878807	13208.08551173	14201.70979676	14978.42290825	204.94041227	-73.67094970	139.39492321
60.63000000	10241.96573826	10603.04142526	11101.64656121	11218.36631064	13204.68236183	14205.26559075	14977.95501928	203.69424660	-74.16571368	142.49009100
60.64000000	10258.13581635	10611.17927796	11113.84445183	11209.74451765	13201.89335400	14206.80314497	14977.54199899	202.64906344	-74.57810394	145.34666704
60.65000000	10268.59487731	10615.61445442	11119.06208678	11197.53537996	13199.75592624	14206.49596239	14977.19197031	201.78965899	-74.91676665	147.92124496
60.66000000	10274.24225890	10616.97014410	11118.41266300	11182.54892294	13198.19474123	14204.61351843	14976.89937078	201.08961121	-75.19260156	150.18586363
60.67000000	10275.97729888	10615.86953647	11113.00937743	11165.59517196	13197.13446166	14201.42528851	14976.65863793	200.52249803	-75.41650843	152.11256195
60.68000000	10274.69933502	10612.93582102	11103.96542700	11147.48415239	13196.49975019	14197.20074807	14976.46420931	200.06189739	-75.59938703	153.67337877
60.69000000	10271.30770507	10608.79218720	11092.39400866	11129.02588959	13196.21526950	14192.20937252	14976.31052245	199.68138723	-75.75213711	154.84035299
60.70000000	10266.70174680	10604.06182449	11079.40831934	11111.03040893	13196.20568228	14186.72063730	14976.19201490	199.35454549	-75.88565845	155.58552349
60.71000000	10261.78079797	10599.36792236	11066.12155598	11094.30773578	13196.39565120	14181.00401782	14976.10312419	199.05495010	-76.01085079	155.88092914
60.72000000	10257.44419634	10595.33367029	11053.64691553	11079.66789550	13196.70983894	14175.32898952	14976.03828787	198.75617901	-76.13861391	155.69860882
60.73000000	10254.58949516	10592.58094447	11043.09552378	11067.91867367	13197.07280401	14169.96465467	14975.99194904	198.43185856	-76.27982673	155.01114915
60.74000000	10253.73593001	10591.45320536	11035.13942440	11059.39301744	13197.38702229	14165.10101057	14975.95972968	198.06587794	-76.44095252	153.90725590
60.75000000	10254.55865979	10591.67273119	11029.47101086	11053.36444679	13197.50570035	14160.75156079	14975.93988202	197.66502408	-76.61860261	152.73471202
60.76000000	10256.61863432	10592.87775015	11025.65012353	11048.96313425	13197.27537832	14156.90592815	14975.93101418	197.23918211	-76.80805530	151.87635532
60.77000000	10259.47680340	10594.70649045	11023.23660279	11045.31925236	13196.54259630	14153.55373546	14975.93173429	196.79823720	-77.00458889	151.71502359
60.78000000	10262.69411684	10596.79718026	11021.79028901	11041.56297365	13195.15389443	14150.68460556	14975.94065046	196.35207448	-77.20348167	152.63355464
60.79000000	10265.83152443	10598.78804779	11020.87102256	11036.82447066	13192.95581281	14148.28816125	14975.95637081	195.91057909	-77.40001195	155.01478626
60.80000000	10268.44997599	10600.31732124	11020.03864381	11030.23391592	13189.79489158	14146.35402535	14975.97750347	195.48363618	-77.58945802	159.24155625
60.81000000	10270.11052018	10601.02331288	11018.85307588	11020.92173926	13185.51773524	14144.87181252	14976.00265632	195.08112740	-77.76709944	165.69642177
60.82000000	10270.50539484	10600.65592179	11016.98402193	11008.35981239	13180.05641013	14143.82029586	14976.03011975	194.70830431	-77.92987894	174.38952009
60.83000000	10269.71664855	10599.29661195	11014.42738175	10993.03455503	13173.59692065	14143.14603429	14976.05724078	194.35666071	-78.07968123	184.22439349
60.84000000	10267.89839990	10597.08814864	11011.23936384	10975.61996124	13166.37222047	14142.78963085	14976.08119202	194.01514683	-78.21930470	193.89999184
60.85000000	10265.20476750	10594.17329710	11007.47617669	10956.79002506	13158.61526326	14142.69168855	14976.09914608	193.67271289	-78.35154774	202.11526504
60.86000000	10261.78986993	10590.69482260	11003.19402881	10937.21874054	13150.55900269	14142.79281041	14976.10827557	193.31830911	-78.47920873	207.56916299
60.87000000	10257.80782581	10586.79549038	10998.44912870	10917.58010173	13142.43639241	14143.03359947	14976.10575310	192.94088570	-78.60508606	208.96063557
60.88000000	10253.41275371	10582.61806570	10993.29768486	10898.54810267	13134.48038609	14143.35465874	14976.08875128	192.52939291	-78.73197812	204.98863267
60.89000000	10248.75877224	10578.30531382	10987.79590579	10880.79673741	13126.92393740	14143.69659124	14976.05444271	192.07278093	-78.86268331	194.35210418
60.90000000	10244	10574	10982	10865	13120	14144	14976	191.56000000	-79	175.75000000
60.91000000	10239.29523721	10569.83089976	10975.96127394	10851.68662415	13113.90105724	14144.21755140	14975.92234628	190.98452106	-79.14598710	148.42870784
60.92000000	10234.82201064	10565.87082971	10969.71142594	10840.80430222	13108.65771119	14144.35016524	14975.81740672	190.35789798	-79.29974556	113.82436677
60.93000000	10230.76252867	10562.17861673	10963.27725229	10832.15546622	13104.26009361	14144.41082467	14975.68085703	189.69620534	-79.45963682	73.92055367
60.94000000	10227.29899972	10558.81308771	10956.68554926	10825.54254818	13100.69833625	14144.41251285	14975.50837288	189.01551773	-79.62402234	30.70084543
60.95000000	10224.61363217	10555.83306952	10949.96311314	10820.76798011	13097.96257086	14144.36821293	14975.29562997	188.33190975	-79.79126357	-13.85118105
60.96000000	10222.88863442	10553.29738906	10943.13674022	10817.63419405	13096.04292919	14144.29090808	14975.03830400	187.66145597	-79.95972198	-57.75194888
60.97000000	10222.30621486	10551.26487319	10936.23322678	10815.94362200	13094.92954301	14144.19358144	14974.73207066	187.02023099	-80.12775900	-99.01788118
60.98000000	10223.04858189	10549.79434881	10929.27936910	10815.49869598	13094.61254407	14144.08921618	14974.37260564	186.42430939	-80.29373610	-135.66540104
60.99000000	10225.29781895	10548.94459689	10922.30196342	10816.10184171	13095.08203213	14143.99079316	14973.95559033	185.88975942	-80.45601335	-165.71140496
61	10229.07017413	10548.71349189	10915.32773696	10817.54710517	13096.28566954	14143.90825186	14973.48426206	185.42421448	-80.61110967	-187.80094486
61.01000000	10233.88913850	10548.91793277	10908.38321185	10819.60363310	13098.04502151	14143.84249472	14972.98430960	185.01024511	-80.75007334	-202.44555121
61.02000000	10239.18709990	10549.34135891	10901.49487234	10822.03596880	13100.15833988	14143.79275339	14972.48557266	184.62578809	-80.86294120	-210.50183762
61.03000000	10244.39644619	10549.76720971	10894.68920266	10824.60865555	13102.42387645	14143.75825950	14972.01789097	184.24878021	-80.93975006	-212.82641769
61.04000000	10248.94956523	10549.97892453	10887.99268703	10827.08623663	13104.63988305	14143.73824467	14971.61110421	183.85715824	-80.97053675	-210.27590504
61.05000000	10252.27884487	10549.75994278	10881.43180970	10829.23325531	13106.60461150	14143.73194055	14971.29505211	183.42885899	-80.94533811	-203.70691328
61.06000000	10253.81667296	10548.89370383	10875.03305488	10830.81425488	13108.11631362	14143.73857877	14971.09957437	182.94181922	-80.85419097	-193.97605600
61.07000000	10252.99543735	10547.16364707	10868.82290682	10831.59377862	13108.97324122	14143.75739096	14971.05451070	182.37397572	-80.68713214	-181.93994683
61.08000000	10249.24752591	10544.35321189	10862.82784975	10831.33636981	13108.97364613	14143.78760875	14971.18970081	181.70326528	-80.43419847	-168.45519936
61.09000000	10242.00532648	10540.24583766	10857.07436790	10829.80657173	13107.91578016	14143.82846379	14971.53498441	180.90762468	-80.08542677	-154.37842721
61.10000000	10230.70122692	10534.62496378	10851.58894550	10826.76892766	13105.59789514	14143.87918771	14972.12020121	179.96499070	-79.63085388	-140.56624399
61.11000000	10214.76761509	10527.27402962	10846.39806678	10821.98798089	13101.81824289	14143.93901214	14972.97519091	178.85330014	-79.06051662	-127.87526330
61.12000000	10193.63741701	10517.97661861	10841.52819398	10815.22844854	13096.37522528	14144.00716622	14974.12971156	177.55050027	-78.36445394	-117.16188404
61.13000000	10167.45772306	10506.70744234	10836.97660633	10806.48575207	13089.26638315	14144.07957568	14975.50514945	176.04847777	-77.53550348	-108.99757701
61.14000000	10138.49766580	10494.00912386	10832.65386962	10796.44081943	13081.08097154	14144.14235060	14976.70087891	174.38053826	-76.57481889	-103.10718792
61.15000000	10109.41871074	10480.52928427	10828.45451771	10785.90131814	13072.51764437	14144.17978628	14977.25673925	172.58764509	-75.48509131	-99.05903456
61.16000000	10082.88232336	10466.91554469	10824.27308443	10775.67491576	13064.27505556	14144.17617803	14976.71256976	170.71076162	-74.26901189	-96.42143470
61.17000000	10061.54996917	10453.81552622	10820.00410363	10766.56927982	13057.05185903	14144.11582117	14974.60820974	168.79085120	-72.92927177	-94.76270613
61.18000000	10048.08233442	10441.87675521	10815.54221604	10759.39200523	13051.54659832	14143.98302162	14970.48370261	166.86887039	-71.46856798	-93.65122309
61.19000000	10044.10606354	10431.62100457	10810.92390711	10754.85431094	13048.31136537	14143.77617225	14964.14996333	164.97674342	-69.89740281	-92.73029818
61.20000000	10048.17528621	10423.19638796	10806.60713456	10753.38104781	13047.46309106	14143.53552345	14956.22276483	163.11955628	-68.24947081	-91.86591311
61.21000000	10058.27607146	10416.68193520	10803.12777987	10755.34412161	13049.03825168	14143.30906440	14947.46668587	161.29743301	-66.56275444	-90.96521770
61.22000000	10072.39448831	10412.15667611	10801.02172449	10761.11543817	13053.07332354	14143.14478426	14938.64630523	159.51049760	-64.87523617	-89.93536174
61.23000000	10088.51660579	10409.69964051	10800.82484989	10771.06690327	13059.60478294	14143.09067223	14930.52620166	157.75887408	-63.22489845	-88.68349503
61.24000000	10104.62849290	10409.38985821	10803.07303753	10785.57042272	13068.66910616	14143.19471748	14923.87095395	156.04268645	-61.64972373	-87.11676739
61.25000000	10118.71621869	10411.30635904	10808.30216888	10804.99790230	13080.30276951	14143.50490919	14919.44514084	154.36205873	-60.18769447	-85.14232861
61.26000000	10128.76633880	10415.52805519	10817.04785933	10829.72097202	13094.54204937	14144.06920689	14918.01307611	152.71712436	-58.87679094	-82.66739321
61.27000000	10133.41118361	10421.97777531	10829.49264467	10859.74525314	13111.15793275	14144.89623960	14919.98739618	151.12052503	-57.75209786	-79.68505239
61.28000000	10133.20191516	10430.11456697	10844.76993266	10893.98882190	13129.13313535	14145.87777101	14924.73577623	149.62206899	-56.84009615	-76.44356816
61.29000000	10129.04445792	10439.31173178	10861.81916346	10931.16868418	13147.30463365	14146.88395820	14931.43269414	148.27843603	-56.16567604	-73.23837972
61.30000000	10121.84473636	10448.94257133	10879.57977722	10970.00184586	13164.50940413	14147.78495827	14939.25262783	147.14630592	-55.75372775	-70.36492625
61.31000000	10112.50867497	10458.38038724	10896.99121410	11009.20531283	13179.58442328	14148.45092831	14947.37005520	146.28235844	-55.62914150	-68.11864696
